<svg width="83" height="28" viewBox="0 0 83 28" fill="none" xmlns="http://www.w3.org/2000/svg">
<path d="M13.832 20.756C14.0747 20.756 14.2613 20.868 14.392 21.092C14.5413 21.316 14.616 21.624 14.616 22.016C14.616 22.7627 14.4387 23.3413 14.084 23.752C13.3933 24.592 12.4133 25.3667 11.144 26.076C9.89333 26.7853 8.54933 27.14 7.112 27.14C5.152 27.14 3.63067 26.608 2.548 25.544C1.46533 24.48 0.924 23.024 0.924 21.176C0.924 19.888 1.19467 18.6933 1.736 17.592C2.27733 16.472 3.024 15.5853 3.976 14.932C4.94667 14.2787 6.03867 13.952 7.252 13.952C8.33467 13.952 9.20267 14.2787 9.856 14.932C10.5093 15.5667 10.836 16.4347 10.836 17.536C10.836 18.824 10.3693 19.9347 9.436 20.868C8.52133 21.7827 6.96267 22.5107 4.76 23.052C5.22667 23.9107 6.11333 24.34 7.42 24.34C8.26 24.34 9.212 24.0507 10.276 23.472C11.3587 22.8747 12.292 22.1 13.076 21.148C13.3 20.8867 13.552 20.756 13.832 20.756ZM6.776 16.696C6.08533 16.696 5.49733 17.0973 5.012 17.9C4.54533 18.7027 4.312 19.6733 4.312 20.812V20.868C5.41333 20.6067 6.28133 20.2147 6.916 19.692C7.55067 19.1693 7.868 18.5627 7.868 17.872C7.868 17.5173 7.76533 17.2373 7.56 17.032C7.37333 16.808 7.112 16.696 6.776 16.696ZM20.1482 27.224C17.6655 27.224 15.6775 26.7573 14.1842 25.824C12.6909 24.872 11.9442 23.4253 11.9442 21.484C11.9442 20.4573 12.1215 19.6733 12.4762 19.132C12.8309 18.5907 13.3535 18.32 14.0442 18.32C14.5482 18.32 14.9589 18.4507 15.2762 18.712C15.5935 18.9733 15.7522 19.3093 15.7522 19.72C15.7522 20.0933 15.7242 20.42 15.6682 20.7C15.6682 20.7747 15.6495 20.9053 15.6122 21.092C15.5935 21.2787 15.5842 21.4747 15.5842 21.68C15.5842 22.52 16.0042 23.1453 16.8442 23.556C17.7029 23.9667 18.8975 24.172 20.4282 24.172C22.0149 24.172 23.2562 23.892 24.1522 23.332C25.0482 22.7533 25.4962 21.9507 25.4962 20.924C25.4962 20.2893 25.2909 19.748 24.8802 19.3C24.4695 18.8333 23.9562 18.4507 23.3402 18.152C22.7242 17.8347 21.8562 17.452 20.7362 17.004C19.2989 16.444 18.1229 15.912 17.2082 15.408C16.3122 14.904 15.5375 14.2227 14.8842 13.364C14.2495 12.4867 13.9322 11.404 13.9322 10.116C13.9322 8.772 14.2869 7.57733 14.9962 6.532C15.7242 5.48667 16.7602 4.67467 18.1042 4.096C19.4669 3.51733 21.0629 3.228 22.8922 3.228C24.2549 3.228 25.5055 3.43333 26.6442 3.844C27.7829 4.236 28.6882 4.84267 29.3602 5.664C30.0509 6.48533 30.3962 7.49333 30.3962 8.688C30.3962 9.864 30.2189 10.7507 29.8642 11.348C29.5095 11.9453 28.9869 12.244 28.2962 12.244C27.8109 12.244 27.4002 12.0947 27.0642 11.796C26.7469 11.4973 26.5882 11.1427 26.5882 10.732C26.5882 10.3773 26.6162 10.0507 26.6722 9.752C26.7282 9.192 26.7562 8.83733 26.7562 8.688C26.7562 7.904 26.3735 7.30667 25.6082 6.896C24.8429 6.48533 23.8909 6.28 22.7522 6.28C21.1469 6.28 19.9149 6.57867 19.0562 7.176C18.2162 7.75467 17.7962 8.576 17.7962 9.64C17.7962 10.3493 18.0109 10.956 18.4402 11.46C18.8882 11.964 19.4389 12.384 20.0922 12.72C20.7455 13.056 21.6602 13.4573 22.8362 13.924C24.2549 14.5027 25.3935 15.0253 26.2522 15.492C27.1109 15.9587 27.8389 16.5933 28.4362 17.396C29.0522 18.1987 29.3602 19.188 29.3602 20.364C29.3602 22.5667 28.5202 24.2653 26.8402 25.46C25.1789 26.636 22.9482 27.224 20.1482 27.224ZM47.0168 20.756C47.2595 20.756 47.4461 20.868 47.5768 21.092C47.7261 21.316 47.8008 21.624 47.8008 22.016C47.8008 22.7627 47.6235 23.3413 47.2688 23.752C46.4101 24.7413 45.5235 25.5533 44.6088 26.188C43.7128 26.8227 42.6861 27.14 41.5288 27.14C40.5768 27.14 39.8581 26.8693 39.3728 26.328C38.8875 25.768 38.6448 24.9653 38.6448 23.92C38.6448 23.3973 38.7755 22.464 39.0368 21.12C39.2795 19.944 39.4008 19.132 39.4008 18.684C39.4008 18.3853 39.2981 18.236 39.0928 18.236C38.8501 18.236 38.5048 18.5533 38.0568 19.188C37.6088 19.804 37.1608 20.6253 36.7128 21.652C36.2648 22.6787 35.9008 23.7613 35.6208 24.9C35.2661 26.3933 34.3888 27.14 32.9888 27.14C32.4288 27.14 32.0555 26.944 31.8688 26.552C31.7008 26.1413 31.6168 25.4133 31.6168 24.368C31.6168 23.7707 31.6261 23.2947 31.6448 22.94L31.6728 20.7C31.6728 17.8253 31.9621 14.8293 32.5408 11.712C33.1381 8.59467 34.0061 5.98133 35.1448 3.872C36.3021 1.744 37.6835 0.679998 39.2888 0.679998C40.1475 0.679998 40.8381 1.05333 41.3608 1.8C41.9021 2.528 42.1728 3.48 42.1728 4.656C42.1728 6.54133 41.6221 8.50133 40.5208 10.536C39.4195 12.552 37.6275 14.9133 35.1448 17.62C35.0888 18.5907 35.0608 19.5893 35.0608 20.616C35.6768 19.0293 36.3581 17.7413 37.1048 16.752C37.8701 15.744 38.6168 15.0253 39.3448 14.596C40.0915 14.1667 40.7728 13.952 41.3888 13.952C42.6021 13.952 43.2088 14.5587 43.2088 15.772C43.2088 16.5 43.0035 17.816 42.5928 19.72C42.2381 21.344 42.0608 22.4173 42.0608 22.94C42.0608 23.6867 42.3315 24.06 42.8728 24.06C43.2461 24.06 43.6848 23.836 44.1888 23.388C44.7115 22.9213 45.4021 22.1747 46.2608 21.148C46.4848 20.8867 46.7368 20.756 47.0168 20.756ZM38.7008 3.452C38.3648 3.452 37.9915 3.93733 37.5808 4.908C37.1701 5.86 36.7688 7.15733 36.3768 8.8C36.0035 10.424 35.6955 12.1973 35.4528 14.12C36.6101 12.7573 37.5621 11.2733 38.3088 9.668C39.0741 8.06267 39.4568 6.60667 39.4568 5.3C39.4568 4.70267 39.3915 4.24533 39.2608 3.928C39.1301 3.61067 38.9435 3.452 38.7008 3.452ZM48.9755 27.14C47.8182 27.14 46.8942 26.72 46.2035 25.88C45.5128 25.04 45.1675 23.9387 45.1675 22.576C45.1675 21.0827 45.5128 19.6733 46.2035 18.348C46.8942 17.004 47.8088 15.9307 48.9475 15.128C50.1048 14.3067 51.3275 13.896 52.6155 13.896C53.0262 13.896 53.2968 13.98 53.4275 14.148C53.5768 14.2973 53.6982 14.5773 53.7915 14.988C54.1835 14.9133 54.5942 14.876 55.0235 14.876C55.9382 14.876 56.3955 15.2027 56.3955 15.856C56.3955 16.248 56.2555 17.1813 55.9755 18.656C55.5462 20.8027 55.3315 22.296 55.3315 23.136C55.3315 23.416 55.3968 23.64 55.5275 23.808C55.6768 23.976 55.8635 24.06 56.0875 24.06C56.4422 24.06 56.8715 23.836 57.3755 23.388C57.8795 22.9213 58.5608 22.1747 59.4195 21.148C59.6435 20.8867 59.8955 20.756 60.1755 20.756C60.4182 20.756 60.6048 20.868 60.7355 21.092C60.8848 21.316 60.9595 21.624 60.9595 22.016C60.9595 22.7627 60.7822 23.3413 60.4275 23.752C59.6622 24.704 58.8502 25.5067 57.9915 26.16C57.1328 26.8133 56.3022 27.14 55.4995 27.14C54.8835 27.14 54.3142 26.9347 53.7915 26.524C53.2875 26.0947 52.9048 25.516 52.6435 24.788C51.6728 26.356 50.4502 27.14 48.9755 27.14ZM49.9835 24.312C50.3942 24.312 50.7862 24.0693 51.1595 23.584C51.5328 23.0987 51.8035 22.4547 51.9715 21.652L53.0075 16.5C52.2235 16.5187 51.4955 16.8173 50.8235 17.396C50.1702 17.956 49.6475 18.7027 49.2555 19.636C48.8635 20.5693 48.6675 21.5587 48.6675 22.604C48.6675 23.1827 48.7795 23.612 49.0035 23.892C49.2462 24.172 49.5728 24.312 49.9835 24.312ZM60.6718 27.14C59.9625 27.14 59.4585 26.7667 59.1598 26.02C58.8798 25.2733 58.7398 24.0787 58.7398 22.436C58.7398 20.0093 59.0852 17.704 59.7758 15.52C59.9438 14.9787 60.2145 14.5867 60.5878 14.344C60.9798 14.0827 61.5212 13.952 62.2118 13.952C62.5852 13.952 62.8465 13.9987 62.9958 14.092C63.1452 14.1853 63.2198 14.3627 63.2198 14.624C63.2198 14.9227 63.0798 15.5947 62.7998 16.64C62.6132 17.3867 62.4638 18.04 62.3518 18.6C62.2398 19.16 62.1465 19.8507 62.0718 20.672C62.6878 19.0667 63.3785 17.76 64.1438 16.752C64.9092 15.744 65.6558 15.0253 66.3838 14.596C67.1305 14.1667 67.8118 13.952 68.4278 13.952C69.6412 13.952 70.2478 14.5587 70.2478 15.772C70.2478 16.0147 70.1638 16.6027 69.9958 17.536C69.8465 18.2827 69.7718 18.7493 69.7718 18.936C69.7718 19.5893 70.0052 19.916 70.4718 19.916C70.9945 19.916 71.6665 19.5053 72.4878 18.684C72.7305 18.4413 72.9825 18.32 73.2438 18.32C73.4865 18.32 73.6732 18.432 73.8038 18.656C73.9532 18.8613 74.0278 19.1413 74.0278 19.496C74.0278 20.1867 73.8412 20.728 73.4678 21.12C72.9452 21.6613 72.3292 22.128 71.6198 22.52C70.9292 22.8933 70.1918 23.08 69.4078 23.08C68.4185 23.08 67.6625 22.828 67.1398 22.324C66.6358 21.82 66.3838 21.1387 66.3838 20.28C66.3838 20 66.4118 19.72 66.4678 19.44C66.5052 19.0667 66.5238 18.8147 66.5238 18.684C66.5238 18.3853 66.4212 18.236 66.2158 18.236C65.9358 18.236 65.5625 18.5533 65.0958 19.188C64.6478 19.804 64.1998 20.6253 63.7518 21.652C63.3038 22.6787 62.9398 23.7613 62.6598 24.9C62.4545 25.7773 62.2118 26.3747 61.9318 26.692C61.6705 26.9907 61.2505 27.14 60.6718 27.14ZM81.45 21.596C81.6927 21.596 81.8794 21.708 82.01 21.932C82.1594 22.156 82.234 22.464 82.234 22.856C82.234 23.528 82.0754 24.1067 81.758 24.592C81.2354 25.3947 80.5447 26.02 79.686 26.468C78.846 26.916 77.838 27.14 76.662 27.14C74.87 27.14 73.4794 26.608 72.49 25.544C71.5007 24.4613 71.006 23.0053 71.006 21.176C71.006 19.888 71.2767 18.6933 71.818 17.592C72.3594 16.472 73.106 15.5853 74.058 14.932C75.0287 14.2787 76.1207 13.952 77.334 13.952C78.4167 13.952 79.2847 14.2787 79.938 14.932C80.5914 15.5667 80.918 16.4347 80.918 17.536C80.918 18.824 80.4514 19.9347 79.518 20.868C78.6034 21.7827 77.0354 22.5107 74.814 23.052C75.262 23.9107 76.018 24.34 77.082 24.34C77.8474 24.34 78.4727 24.1627 78.958 23.808C79.462 23.4533 80.0407 22.856 80.694 22.016C80.918 21.736 81.17 21.596 81.45 21.596ZM76.858 16.696C76.1674 16.696 75.5794 17.0973 75.094 17.9C74.6274 18.7027 74.394 19.6733 74.394 20.812V20.868C75.4954 20.6067 76.3634 20.2147 76.998 19.692C77.6327 19.1693 77.95 18.5627 77.95 17.872C77.95 17.5173 77.8474 17.2373 77.642 17.032C77.4554 16.808 77.194 16.696 76.858 16.696Z" fill="#1F1F1F"/>
</svg>
